<svg width="57" height="56" viewBox="0 0 57 56" fill="none" xmlns="http://www.w3.org/2000/svg">
<path d="M0.5 16C0.5 7.16344 7.66344 0 16.5 0H40.5C49.3366 0 56.5 7.16344 56.5 16V40C56.5 48.8366 49.3366 56 40.5 56H16.5C7.66344 56 0.5 48.8366 0.5 40V16Z" fill="#17A2B8" fill-opacity="0.1"/>
<path d="M27.9998 37H23.4998C22.9693 37 22.4606 36.7893 22.0855 36.4142C21.7105 36.0391 21.4998 35.5304 21.4998 35V29C21.4998 28.4696 21.7105 27.9609 22.0855 27.5858C22.4606 27.2107 22.9693 27 23.4998 27H33.4998C34.0302 27 34.5389 27.2107 34.914 27.5858C35.289 27.9609 35.4998 28.4696 35.4998 29V29.5" stroke="#17A2B8" stroke-width="1.5" stroke-linecap="round" stroke-linejoin="round"/>
<path d="M24.4998 27V23C24.4998 21.9391 24.9212 20.9217 25.6713 20.1716C26.4215 19.4214 27.4389 19 28.4998 19C29.5606 19 30.578 19.4214 31.3282 20.1716C32.0783 20.9217 32.4998 21.9391 32.4998 23V27M31.4998 35L33.4998 37L37.4998 33M27.4998 32C27.4998 32.2652 27.6051 32.5196 27.7926 32.7071C27.9802 32.8946 28.2345 33 28.4998 33C28.765 33 29.0193 32.8946 29.2069 32.7071C29.3944 32.5196 29.4998 32.2652 29.4998 32C29.4998 31.7348 29.3944 31.4804 29.2069 31.2929C29.0193 31.1054 28.765 31 28.4998 31C28.2345 31 27.9802 31.1054 27.7926 31.2929C27.6051 31.4804 27.4998 31.7348 27.4998 32Z" stroke="#17A2B8" stroke-width="1.5" stroke-linecap="round" stroke-linejoin="round"/>
</svg>
