<svg width="56" height="56" viewBox="0 0 56 56" fill="none" xmlns="http://www.w3.org/2000/svg">
<path d="M0 16C0 7.16344 7.16344 0 16 0H40C48.8366 0 56 7.16344 56 16V40C56 48.8366 48.8366 56 40 56H16C7.16344 56 0 48.8366 0 40V16Z" fill="#3843D0" fill-opacity="0.1"/>
<path d="M27.4998 37H22.9998C22.4693 37 21.9606 36.7893 21.5855 36.4142C21.2105 36.0391 20.9998 35.5304 20.9998 35V29C20.9998 28.4696 21.2105 27.9609 21.5855 27.5858C21.9606 27.2107 22.4693 27 22.9998 27H32.9998C33.5302 27 34.0389 27.2107 34.414 27.5858C34.789 27.9609 34.9998 28.4696 34.9998 29V29.5" stroke="#3843D0" stroke-width="1.5" stroke-linecap="round" stroke-linejoin="round"/>
<path d="M23.9998 27V23C23.9998 21.9391 24.4212 20.9217 25.1713 20.1716C25.9215 19.4214 26.9389 19 27.9998 19C29.0606 19 30.078 19.4214 30.8282 20.1716C31.5783 20.9217 31.9998 21.9391 31.9998 23V27M30.9998 35L32.9998 37L36.9998 33M26.9998 32C26.9998 32.2652 27.1051 32.5196 27.2926 32.7071C27.4802 32.8946 27.7345 33 27.9998 33C28.265 33 28.5193 32.8946 28.7069 32.7071C28.8944 32.5196 28.9998 32.2652 28.9998 32C28.9998 31.7348 28.8944 31.4804 28.7069 31.2929C28.5193 31.1054 28.265 31 27.9998 31C27.7345 31 27.4802 31.1054 27.2926 31.2929C27.1051 31.4804 26.9998 31.7348 26.9998 32Z" stroke="#3843D0" stroke-width="1.5" stroke-linecap="round" stroke-linejoin="round"/>
</svg>
