<svg width="56" height="56" viewBox="0 0 56 56" fill="none" xmlns="http://www.w3.org/2000/svg">
<path d="M0 16C0 7.16344 7.16344 0 16 0H40C48.8366 0 56 7.16344 56 16V40C56 48.8366 48.8366 56 40 56H16C7.16344 56 0 48.8366 0 40V16Z" fill="#DC3545" fill-opacity="0.1"/>
<path d="M31 23H25M31 27H25M31 31H27M21 19H35V37L33.968 36.116C33.6055 35.8053 33.1439 35.6346 32.6665 35.6346C32.1891 35.6346 31.7275 35.8053 31.365 36.116L30.333 37L29.302 36.116C28.9395 35.8051 28.4776 35.6342 28 35.6342C27.5224 35.6342 27.0605 35.8051 26.698 36.116L25.667 37L24.635 36.116C24.2725 35.8053 23.8109 35.6346 23.3335 35.6346C22.8561 35.6346 22.3945 35.8053 22.032 36.116L21 37V19Z" stroke="#DC3545" stroke-width="2" stroke-linecap="round" stroke-linejoin="round"/>
</svg>
