<svg width="56" height="56" viewBox="0 0 56 56" fill="none" xmlns="http://www.w3.org/2000/svg">
<path d="M0 16C0 7.16344 7.16344 0 16 0H40C48.8366 0 56 7.16344 56 16V40C56 48.8366 48.8366 56 40 56H16C7.16344 56 0 48.8366 0 40V16Z" fill="#3843D0" fill-opacity="0.1"/>
<path d="M30 19V23C30 23.2652 30.1054 23.5196 30.2929 23.7071C30.4804 23.8946 30.7348 24 31 24H35" stroke="#3843D0" stroke-width="2" stroke-linecap="round" stroke-linejoin="round"/>
<path d="M33 37H23C22.4696 37 21.9609 36.7893 21.5858 36.4142C21.2107 36.0391 21 35.5304 21 35V21C21 20.4696 21.2107 19.9609 21.5858 19.5858C21.9609 19.2107 22.4696 19 23 19H30L35 24V35C35 35.5304 34.7893 36.0391 34.4142 36.4142C34.0391 36.7893 33.5304 37 33 37Z" stroke="#3843D0" stroke-width="2" stroke-linecap="round" stroke-linejoin="round"/>
<path d="M27 28.4995C27 28.1017 26.842 27.7202 26.5607 27.4389C26.2794 27.1575 25.8978 26.9995 25.5 26.9995C25.1022 26.9995 24.7206 27.1575 24.4393 27.4389C24.158 27.7202 24 28.1017 24 28.4995V31.4995C24 31.8973 24.158 32.2789 24.4393 32.5602C24.7206 32.8415 25.1022 32.9995 25.5 32.9995C25.8978 32.9995 26.2794 32.8415 26.5607 32.5602C26.842 32.2789 27 31.8973 27 31.4995M29 26.9995L30.5 32.9995L32 26.9995" stroke="#3843D0" stroke-width="2" stroke-linecap="round" stroke-linejoin="round"/>
</svg>
