<svg width="56" height="56" viewBox="0 0 56 56" fill="none" xmlns="http://www.w3.org/2000/svg">
<path d="M0 16C0 7.16344 7.16344 0 16 0H40C48.8366 0 56 7.16344 56 16V40C56 48.8366 48.8366 56 40 56H16C7.16344 56 0 48.8366 0 40V16Z" fill="#3843D0" fill-opacity="0.1"/>
<path d="M30 19V23C30 23.2652 30.1054 23.5196 30.2929 23.7071C30.4804 23.8946 30.7348 24 31 24H35" stroke="#3843D0" stroke-width="2" stroke-linecap="round" stroke-linejoin="round"/>
<path d="M21 28V21C21 20.4696 21.2107 19.9609 21.5858 19.5858C21.9609 19.2107 22.4696 19 23 19H30L35 24V28M21 34H22.5C22.8978 34 23.2794 33.842 23.5607 33.5607C23.842 33.2794 24 32.8978 24 32.5C24 32.1022 23.842 31.7206 23.5607 31.4393C23.2794 31.158 22.8978 31 22.5 31H21V37M33 34H35M36 31H33V37M27 31V37H28C28.5304 37 29.0391 36.7893 29.4142 36.4142C29.7893 36.0391 30 35.5304 30 35V33C30 32.4696 29.7893 31.9609 29.4142 31.5858C29.0391 31.2107 28.5304 31 28 31H27Z" stroke="#3843D0" stroke-width="2" stroke-linecap="round" stroke-linejoin="round"/>
</svg>
