<svg width="40" height="40" viewBox="0 0 40 40" fill="none" xmlns="http://www.w3.org/2000/svg">
<rect width="40" height="40" rx="20" fill="#DC3545" fill-opacity="0.1"/>
<path d="M16 17H24M16 21H22M20 29L19 28L17 26H14C13.2044 26 12.4413 25.6839 11.8787 25.1213C11.3161 24.5587 11 23.7956 11 23V15C11 14.2044 11.3161 13.4413 11.8787 12.8787C12.4413 12.3161 13.2044 12 14 12H26C26.7956 12 27.5587 12.3161 28.1213 12.8787C28.6839 13.4413 29 14.2044 29 15V21M23 27L25 29L29 25" stroke="#DC3545" stroke-width="2" stroke-linecap="round" stroke-linejoin="round"/>
</svg>
