<svg width="20" height="21" viewBox="0 0 20 21" fill="none" xmlns="http://www.w3.org/2000/svg">
<path d="M2 2V8.025V8V18V2ZM5 12H7.5C7.65 11.6167 7.83333 11.2583 8.05 10.925C8.26667 10.5917 8.51667 10.2833 8.8 10H5C4.71667 10 4.47933 10.096 4.288 10.288C4.09667 10.48 4.00067 10.7173 4 11C4 11.2833 4.096 11.521 4.288 11.713C4.48 11.905 4.71733 12.0007 5 12ZM5 16H7.175C7.09167 15.6667 7.03767 15.3333 7.013 15C6.98833 14.6667 6.99233 14.3333 7.025 14H5C4.71667 14 4.47933 14.096 4.288 14.288C4.09667 14.48 4.00067 14.7173 4 15C4 15.2833 4.096 15.521 4.288 15.713C4.48 15.905 4.71733 16.0007 5 16ZM2 20C1.45 20 0.979333 19.8043 0.588 19.413C0.196667 19.0217 0.000666667 18.5507 0 18V2C0 1.45 0.196 0.979333 0.588 0.588C0.98 0.196667 1.45067 0.000666667 2 0H9.175C9.44167 0 9.696 0.0500001 9.938 0.15C10.18 0.25 10.3923 0.391667 10.575 0.575L15.425 5.425C15.6083 5.60833 15.75 5.821 15.85 6.063C15.95 6.305 16 6.559 16 6.825V8.5C15.6833 8.36667 15.3583 8.26267 15.025 8.188C14.6917 8.11333 14.35 8.059 14 8.025V7H10C9.71667 7 9.47933 6.904 9.288 6.712C9.09667 6.52 9.00067 6.28267 9 6V2H2V18H8.025C8.29167 18.4 8.59167 18.771 8.925 19.113C9.25833 19.455 9.625 19.7507 10.025 20H2ZM13.5 17C14.2 17 14.7917 16.7583 15.275 16.275C15.7583 15.7917 16 15.2 16 14.5C16 13.8 15.7583 13.2083 15.275 12.725C14.7917 12.2417 14.2 12 13.5 12C12.8 12 12.2083 12.2417 11.725 12.725C11.2417 13.2083 11 13.8 11 14.5C11 15.2 11.2417 15.7917 11.725 16.275C12.2083 16.7583 12.8 17 13.5 17ZM19.3 20.3C19.1167 20.4833 18.8833 20.575 18.6 20.575C18.3167 20.575 18.0833 20.4833 17.9 20.3L15.9 18.3C15.55 18.5333 15.171 18.7083 14.763 18.825C14.355 18.9417 13.934 19 13.5 19C12.25 19 11.1877 18.5627 10.313 17.688C9.43833 16.8133 9.00067 15.7507 9 14.5C9 13.25 9.43767 12.1877 10.313 11.313C11.1883 10.4383 12.2507 10.0007 13.5 10C14.75 10 15.8127 10.4377 16.688 11.313C17.5633 12.1883 18.0007 13.2507 18 14.5C18 14.9333 17.9417 15.3543 17.825 15.763C17.7083 16.1717 17.5333 16.5507 17.3 16.9L19.3 18.9C19.4833 19.0833 19.575 19.3167 19.575 19.6C19.575 19.8833 19.4833 20.1167 19.3 20.3Z" fill="#28A745"/>
</svg>
