<svg width="199" height="37" viewBox="0 0 199 37" fill="none" xmlns="http://www.w3.org/2000/svg">
<path d="M120.58 5.18905C117.014 6.63295 114.956 8.70856 111.801 13.9427C110.383 16.3342 108.737 18.9964 108.188 19.8537C102.701 28.472 101.923 30.9537 104.118 32.9842L105.307 34.0671L140.7 34.2025C179.614 34.3378 178.974 34.383 182.861 31.5854C184.736 30.2769 185.742 28.7427 192.967 16.6951C197.677 8.79881 197.997 7.53539 195.802 5.41466L194.476 4.10612L158.9 4.061H123.278L120.58 5.18905ZM132.195 19.4025V28.8781H129.954C128.537 28.8781 127.622 28.6525 127.485 28.2915C127.348 27.8854 127.119 27.8854 126.525 28.3817C125.29 29.3744 121.495 29.2391 119.94 28.1561C118.248 26.8927 117.105 24.5012 117.105 22.1098C117.105 16.9208 121.815 13.4464 125.976 15.5671C126.662 15.9281 127.348 16.2439 127.439 16.2439C127.531 16.2439 127.622 14.8 127.622 13.0854V9.92686H129.909H132.195V19.4025ZM144.45 15.7927C145.548 16.2891 146.736 17.2366 147.194 18.0488C147.605 18.7708 148.063 19.4025 148.2 19.4025C148.337 19.4025 148.748 18.8159 149.16 18.0939C149.572 17.4171 150.852 16.3793 152.041 15.7927C154.83 14.4842 157.757 14.8 160.043 16.6049L161.644 17.8683L162.878 16.5147C164.067 15.2061 164.342 15.1159 167.268 15.1159C169.509 15.1159 170.789 15.3415 171.658 15.9281C172.847 16.6951 172.893 16.7854 172.207 18.0488C171.384 19.6281 171.292 19.6281 169.006 18.6805C167.131 17.9134 166.033 18.0939 166.033 19.1317C166.033 19.583 166.902 20.0793 168.411 20.5305C171.475 21.3878 172.893 22.7415 172.893 24.6366C172.893 26.7573 172.481 27.4793 170.881 28.2915C169.006 29.2842 164.387 29.2391 162.421 28.2464C161.003 27.5244 160.82 27.5244 159.266 28.2464C155.745 29.9159 150.76 28.8781 149.206 26.1256C148.748 25.4037 148.337 24.8171 148.2 24.8171C148.063 24.8171 147.651 25.4037 147.194 26.1256C146.142 27.9756 143.947 28.9683 140.883 29.0134C136.082 29.0586 133.338 26.5317 133.338 22.1098C133.338 18.9061 134.299 17.372 137.225 15.883C139.694 14.6647 141.844 14.6195 144.45 15.7927Z" fill="#D2D1D1"/>
<path d="M123.598 19.1769C121.22 20.1696 121.038 23.644 123.278 25.0879C125.473 26.4867 127.988 24.3659 127.439 21.4781C127.028 19.3123 125.519 18.4098 123.598 19.1769Z" fill="#D2D1D1"/>
<path d="M139.329 19.4476C138.14 20.3952 137.774 22.3805 138.414 24.1403C138.871 25.2683 140.746 25.8098 141.935 25.2232C143.307 24.5013 143.627 23.9598 143.627 22.0647C143.627 19.4025 141.249 17.9586 139.329 19.4476Z" fill="#D2D1D1"/>
<path d="M153.687 19.8537C152.59 20.9366 152.498 22.8769 153.504 24.2757C154.327 25.4488 156.934 25.6293 157.803 24.5915C158.306 24.0049 158.488 24.0049 159.312 24.5915C160.455 25.3586 161.781 25.494 162.009 24.8171C162.101 24.5013 162.695 24.5915 163.61 25.0427C165.165 25.8098 168.594 25.8098 168.457 25.0427C168.411 24.8171 167.314 24.2757 165.942 23.8244C163.381 22.9671 161.461 21.2525 161.461 19.8086C161.461 18.8159 160.683 18.7257 159.449 19.6281C158.671 20.2147 158.443 20.2147 157.528 19.6281C156.065 18.6805 154.785 18.7708 153.687 19.8537Z" fill="#D2D1D1"/>
<path d="M62.2321 10.1525C61.5462 10.9647 62.0035 13.0403 62.918 13.4013C64.9758 14.1683 66.8963 12.2281 65.8903 10.3781C65.2959 9.29516 63.1009 9.15979 62.2321 10.1525Z" fill="#D2D1D1"/>
<path d="M95.6133 19.6281V28.8781H97.671H99.7288V19.6281V10.3781H97.671H95.6133V19.6281Z" fill="#D2D1D1"/>
<path d="M8.1365 15.6573C7.95359 15.7927 7.81641 18.861 7.81641 22.4256V28.8781H9.87414H11.9319V24.9073C11.9319 20.3049 12.5721 18.9512 14.6755 18.9512C16.779 18.9512 17.4192 20.3049 17.4192 24.9073V28.8781H19.4769H21.5347V24.9073C21.5347 20.3049 22.1748 18.9512 24.2783 18.9512C26.3818 18.9512 27.0219 20.3049 27.0219 24.9073V28.8781H28.851H30.6801V23.4183C30.6801 18.0037 30.6801 17.9585 29.3541 16.65C28.4852 15.7927 27.525 15.3415 26.6561 15.3415C24.6898 15.3415 22.4949 16.1988 21.9462 17.2366C21.4889 18.0939 21.4432 18.0939 20.3 16.9207C19.6598 16.289 18.6081 15.6573 18.0136 15.522C16.5504 15.161 13.9896 15.6573 13.3037 16.4695C12.5263 17.372 12.0691 17.3268 11.7947 16.2439C11.6118 15.5671 11.1545 15.3415 10.0113 15.3415C9.1425 15.3415 8.27368 15.4768 8.1365 15.6573Z" fill="#D2D1D1"/>
<path d="M35.0244 15.9732C33.5153 16.4244 33.1953 16.6951 33.3324 17.5976C33.4696 19.0866 33.5611 19.0866 36.0304 18.5902C38.4539 18.0488 40.3745 18.6354 40.6488 19.8988C40.7403 20.5305 40.2373 20.6659 37.8137 20.8463C33.8812 21.072 32.3264 22.1549 32.1435 24.7268C31.9606 27.4341 33.4696 28.8781 36.4876 28.8781C37.768 28.8781 39.1398 28.5622 39.7343 28.1561C40.6488 27.5244 40.7403 27.5244 40.7403 28.1561C40.7403 28.6976 41.2433 28.8781 42.798 28.8781H44.8558V23.9146C44.8558 21.2073 44.6271 18.5 44.3528 17.8683C43.301 15.5671 39.0941 14.7098 35.0244 15.9732ZM40.7403 23.8695C40.7403 25.9902 37.1278 26.9829 36.0304 25.1781C35.253 23.9598 36.4419 23.0122 38.7283 23.0122C40.4202 23.0122 40.7403 23.1476 40.7403 23.8695Z" fill="#D2D1D1"/>
<path d="M48.6968 16.0634C45.0386 17.8232 44.8099 24.3208 48.2852 26.9829C49.7942 28.1561 52.858 28.2915 54.367 27.2537C55.3272 26.5768 55.373 26.622 55.373 27.8854C55.373 28.6073 55.0072 29.5098 54.5499 29.9159C53.5896 30.8183 50.2972 30.9537 48.8797 30.1866C48.0566 29.7805 47.7822 29.8256 47.2792 30.5025C46.9591 30.9537 46.6848 31.5403 46.6848 31.811C46.6848 32.6232 48.9254 33.4805 51.7148 33.7061C53.7268 33.8866 54.6413 33.7061 56.2875 32.8488C57.4307 32.2622 58.6196 31.3147 58.894 30.6829C59.3055 29.9159 59.4884 27.1634 59.4884 22.4256V15.3415H57.6593C56.4704 15.3415 55.6931 15.5671 55.5559 15.9732C55.3272 16.5147 55.0986 16.5147 53.7725 15.9732C51.7605 15.161 50.4801 15.2061 48.6968 16.0634ZM54.7785 19.3573C56.3333 21.3427 54.87 25.2683 52.6293 25.2683C51.3032 25.2683 49.4284 23.2829 49.4284 21.8842C49.4284 18.6354 52.9494 16.9659 54.7785 19.3573Z" fill="#D2D1D1"/>
<path d="M62.095 15.6122C61.9121 15.7927 61.7749 18.861 61.7749 22.4256V28.8781H63.8326H65.9361L65.7989 22.2L65.6617 15.5671L64.0613 15.4317C63.1467 15.3415 62.2779 15.4317 62.095 15.6122Z" fill="#D2D1D1"/>
<path d="M71.6976 15.7927C69.8228 16.3793 69.0454 17.1012 68.0394 19.3573C66.5304 22.7866 67.7651 26.5768 70.9203 28.2012C73.481 29.5098 77.9166 28.8329 79.5627 26.8927C80.1115 26.261 80.2944 26.3512 81.4376 27.5244C82.535 28.6524 83.0838 28.8781 84.9586 28.8781C86.239 28.8781 87.6108 28.5622 88.2052 28.1561C89.1198 27.5244 89.2112 27.5244 89.2112 28.1561C89.2112 28.6976 89.7142 28.8781 91.269 28.8781H93.3267V23.9146C93.3267 18.1841 92.778 16.6049 90.5373 15.8378C88.7082 15.2061 85.8731 15.2512 83.541 15.9281C81.4833 16.5598 81.1632 17.0561 82.032 18.1841C82.535 18.9061 82.9009 18.9512 84.6385 18.5451C86.9249 18.0488 88.8454 18.6354 89.1198 19.8988C89.2112 20.5305 88.7082 20.6659 86.2847 20.8463C82.6265 21.072 80.8431 22.1549 80.6145 24.2756C80.4316 25.9451 80.4316 25.9451 78.6482 25.0427C77.4136 24.411 77.1849 24.411 76.3161 25.0427C74.8071 26.0354 73.3895 25.8549 72.3378 24.5463C71.0574 22.922 71.1032 20.9817 72.5207 19.6281C73.8011 18.3195 75.3101 18.1841 76.4533 19.222C77.1849 19.8988 77.3678 19.8537 78.6482 19.1317C79.4256 18.6805 80.02 18.0939 79.9286 17.8683C79.3341 16.1537 74.4413 14.8902 71.6976 15.7927ZM89.2112 24.1402C89.2112 26.0354 85.6445 27.0281 84.6842 25.4037C83.9069 23.9598 84.9129 23.0122 87.1535 23.0122C89.0283 23.0122 89.2112 23.1024 89.2112 24.1402Z" fill="#D2D1D1"/>
</svg>
