<svg width="159" height="26" viewBox="0 0 159 26" fill="none" xmlns="http://www.w3.org/2000/svg">
<g clip-path="url(#clip0_447_644)">
<path d="M157.401 1.19941C156.501 0.199415 155.101 0.0994147 153.901 0.0994147C150.501 0.0994147 147.201 0.0994147 143.801 0.0994147C131.301 0.0994147 118.801 0.0994147 106.301 0.0994147C95.3008 -0.500585 91.1008 0.899415 85.3008 10.5994C83.9008 12.8994 82.6008 15.2994 81.4008 17.6994C80.4008 19.8994 78.6008 22.4994 80.7008 24.4994C81.1008 24.8994 81.5008 24.9994 82.0008 25.0994C84.3008 25.4994 86.7008 25.2994 89.0008 25.2994C94.9008 25.2994 100.801 25.2994 106.701 25.3994C108.201 25.3994 109.701 25.3994 111.201 25.3994C143.801 25.4994 143.201 25.5994 146.501 23.1994C148.101 22.0994 148.901 20.7994 155.001 10.6994C156.001 8.89941 157.101 7.19942 158.001 5.29942C158.701 3.89942 158.501 2.29941 157.401 1.19941ZM104.101 20.8994H102.201C101.001 20.8994 100.201 20.6994 100.101 20.3994C100.001 20.0994 99.8008 20.0994 99.3008 20.4994C98.3008 21.2994 95.1008 21.1994 93.8008 20.2994C92.4008 19.2994 91.4008 17.1994 91.4008 15.1994C91.4008 10.8994 95.3008 7.89941 98.8008 9.69941C99.4008 9.99941 100.001 10.2994 100.001 10.2994C100.101 10.2994 100.201 9.09941 100.201 7.69941V4.99941H104.001V20.8994H104.101ZM136.501 20.3994C134.901 21.1994 131.101 21.1994 129.401 20.3994C128.201 19.7994 128.101 19.7994 126.801 20.3994C123.801 21.7994 119.701 20.8994 118.401 18.5994C118.001 17.9994 117.701 17.4994 117.601 17.4994C117.501 17.4994 117.101 17.9994 116.801 18.5994C115.901 20.1994 114.101 20.9994 111.501 20.9994C107.501 20.9994 105.201 18.8994 105.201 15.1994C105.201 12.4994 106.001 11.1994 108.401 9.99941C110.501 8.99941 112.301 8.89941 114.401 9.89941C115.301 10.2994 116.301 11.0994 116.701 11.7994C117.001 12.3994 117.401 12.8994 117.501 12.8994C117.601 12.8994 118.001 12.3994 118.301 11.7994C118.601 11.1994 119.701 10.3994 120.701 9.89941C123.001 8.79941 125.501 9.09941 127.401 10.5994L128.701 11.5994C129.201 11.0994 129.601 10.3994 130.201 9.99941C131.001 9.39941 132.201 9.09941 133.201 8.99941C134.501 8.99941 136.001 9.19941 137.101 9.89941C138.101 10.4994 138.101 10.5994 137.601 11.6994C136.901 12.9994 136.801 12.9994 134.901 12.1994C133.301 11.5994 132.401 11.6994 132.401 12.5994C132.401 12.9994 133.101 13.3994 134.401 13.7994C137.001 14.4994 138.201 15.6994 138.201 17.1994C138.201 19.0994 137.801 19.6994 136.501 20.3994Z" fill="url(#paint0_linear_447_644)"/>
<path d="M45.4998 5.1987C44.8998 5.8987 45.2998 7.5987 46.0998 7.8987C47.7998 8.4987 49.3998 6.8987 48.5998 5.3987C48.0998 4.4987 46.2998 4.3987 45.4998 5.1987Z" fill="url(#paint1_linear_447_644)"/>
<path d="M73.5 5.40039V13.2004V20.9004H75.2H76.9V13.2004V5.40039H75.2H73.5Z" fill="url(#paint2_linear_447_644)"/>
<path d="M18 10.7004C17.3 10.0004 16.5 9.60039 15.7 9.60039C14.1 9.60039 12.2 10.3004 11.8 11.2004C11.4 11.9004 11.4 11.9004 10.4 10.9004C9.9 10.4004 9 9.80039 8.5 9.70039C7.3 9.40039 5.1 9.80039 4.6 10.5004C3.9 11.3004 3.6 11.2004 3.3 10.3004C3.2 9.80039 2.8 9.60039 1.8 9.60039C1.1 9.60039 0.3 9.70039 0.2 9.90039C0.1 9.90039 0 12.5004 0 15.5004V20.9004H1.7H3.4V17.6004C3.4 13.7004 3.9 12.6004 5.7 12.6004C7.5 12.6004 8 13.7004 8 17.6004V20.9004H9.7H11.4V17.6004C11.4 13.7004 11.9 12.6004 13.7 12.6004C15.5 12.6004 16 13.7004 16 17.6004V20.9004H17.5H19V16.3004C19.1 11.8004 19.1 11.8004 18 10.7004Z" fill="url(#paint3_linear_447_644)"/>
<path d="M22.8006 10.0997C21.5006 10.4997 21.3006 10.6997 21.4006 11.4997C21.5006 12.6997 21.6006 12.6997 23.7006 12.2997C25.7006 11.7997 27.3006 12.2997 27.6006 13.3997C27.7006 13.8997 27.3006 13.9997 25.2006 14.1997C21.9006 14.3997 20.6006 15.2997 20.5006 17.3997C20.3006 19.6997 21.6006 20.8997 24.1006 20.8997C25.2006 20.8997 26.3006 20.5997 26.8006 20.2997C27.6006 19.7997 27.6006 19.7997 27.6006 20.2997C27.6006 20.7997 28.0006 20.8997 29.3006 20.8997H31.0006V16.6997C31.0006 14.3997 30.8006 12.1997 30.6006 11.5997C29.7006 9.79973 26.2006 8.99973 22.8006 10.0997ZM23.6006 17.7997C23.0006 16.7997 24.0006 15.9997 25.9006 15.9997C27.3006 15.9997 27.6006 16.0997 27.6006 16.6997C27.6006 18.4997 24.5006 19.2997 23.6006 17.7997Z" fill="url(#paint4_linear_447_644)"/>
<path d="M40.0007 10.0996C39.8007 10.5996 39.6007 10.5996 38.5007 10.0996C36.8007 9.39961 35.7007 9.49961 34.3007 10.1996C31.2007 11.6996 31.0007 17.0996 34.0007 19.2996C35.3007 20.2996 37.8007 20.3996 39.1007 19.4996C39.9007 18.8996 39.9007 18.9996 39.9007 19.9996C39.9007 20.5996 39.6007 21.3996 39.2007 21.6996C38.4007 22.4996 35.6007 22.5996 34.5007 21.8996C33.8007 21.5996 33.6007 21.5996 33.2007 22.1996C32.9007 22.5996 32.7007 23.0996 32.7007 23.2996C32.7007 23.9996 34.6007 24.6996 36.9007 24.8996C38.6007 25.0996 39.3007 24.8996 40.7007 24.1996C41.7007 23.6996 42.7007 22.8996 42.9007 22.3996C43.2007 21.7996 43.4007 19.4996 43.4007 15.4996V9.59961H41.9007C40.7007 9.59961 40.1007 9.79961 40.0007 10.0996ZM37.5007 17.8996C36.4007 17.8996 34.8007 16.1996 34.8007 15.0996C34.8007 12.3996 37.7007 10.9996 39.3007 12.9996C40.6007 14.5996 39.4007 17.8996 37.5007 17.8996Z" fill="url(#paint5_linear_447_644)"/>
<path d="M48.3992 9.79939L47.0992 9.69939C46.2992 9.59939 45.5992 9.69939 45.4992 9.89939C45.2992 10.0994 45.1992 12.5994 45.1992 15.5994V20.9994H46.8992H48.6992L48.5992 15.3994L48.3992 9.79939Z" fill="url(#paint6_linear_447_644)"/>
<path d="M69.1991 10.0001C67.6991 9.50007 65.2991 9.50007 63.2991 10.1001C61.5991 10.6001 61.2991 11.0001 61.9991 12.0001C62.3991 12.6001 62.6991 12.6001 64.1991 12.3001C66.0991 11.9001 67.6991 12.4001 67.9991 13.4001C68.0991 13.9001 67.6991 14.0001 65.5991 14.2001C62.4991 14.4001 60.9991 15.3001 60.8991 17.1001C60.6991 18.5001 60.6991 18.5001 59.2991 17.7001C58.2991 17.2001 58.0991 17.2001 57.2991 17.7001C55.9991 18.5001 54.8991 18.4001 53.9991 17.3001C52.8991 15.9001 52.9991 14.3001 54.1991 13.2001C55.2991 12.1001 56.4991 12.0001 57.4991 12.9001C58.0991 13.5001 58.2991 13.4001 59.2991 12.8001C59.9991 12.4001 60.3991 11.9001 60.3991 11.7001C59.8991 10.3001 55.7991 9.20007 53.4991 10.0001C51.8991 10.5001 51.2991 11.1001 50.3991 13.0001C49.0991 15.9001 50.1991 19.0001 52.7991 20.4001C54.8991 21.5001 58.6991 20.9001 59.9991 19.3001C60.4991 18.8001 60.5991 18.8001 61.5991 19.8001C62.4991 20.7001 62.9991 20.9001 64.4991 20.9001C65.5991 20.9001 66.6991 20.6001 67.1991 20.3001C67.9991 19.8001 67.9991 19.8001 67.9991 20.3001C67.9991 20.8001 68.3991 20.9001 69.6991 20.9001H71.3991V16.7001C71.5991 11.9001 71.0991 10.6001 69.1991 10.0001ZM64.2991 18.0001C63.5991 16.8001 64.4991 16.0001 66.3991 16.0001C67.9991 16.0001 68.0991 16.1001 68.0991 16.9001C68.0991 18.5001 65.0991 19.3001 64.2991 18.0001Z" fill="url(#paint7_linear_447_644)"/>
<path d="M96.8993 12.7992C94.8993 13.5992 94.7993 16.4992 96.5993 17.7992C98.3993 18.9992 100.499 17.1992 100.099 14.7992C99.7993 12.8992 98.4993 12.0992 96.8993 12.7992Z" fill="url(#paint8_linear_447_644)"/>
<path d="M110.1 13.0001C109.1 13.8001 108.8 15.5001 109.3 16.9001C109.7 17.9001 111.3 18.3001 112.2 17.8001C113.4 17.2001 113.6 16.7001 113.6 15.2001C113.7 13.0001 111.7 11.8001 110.1 13.0001Z" fill="url(#paint9_linear_447_644)"/>
<path d="M132.4 16.6991C130.2 15.9991 128.6 14.5991 128.6 13.2991C128.6 12.4991 127.9 12.3991 126.9 13.0991C126.2 13.5991 126.1 13.5991 125.3 13.0991C124.1 12.2991 123 12.3991 122.1 13.2991C121.2 14.1991 121.1 15.7991 121.9 16.9991C122.6 17.9991 124.8 18.0991 125.5 17.2991C125.9 16.7991 126.1 16.7991 126.8 17.2991C127.8 17.8991 128.9 18.0991 129 17.4991C129.1 17.1991 129.6 17.2991 130.3 17.6991C131.6 18.2991 134.5 18.2991 134.4 17.6991C134.4 17.4991 133.5 16.9991 132.4 16.6991Z" fill="url(#paint10_linear_447_644)"/>
</g>
<defs>
<linearGradient id="paint0_linear_447_644" x1="80.7484" y1="1.47289" x2="158.409" y2="1.47289" gradientUnits="userSpaceOnUse">
<stop stop-color="#4A56EE"/>
<stop offset="0.942708" stop-color="#7A4CDD"/>
</linearGradient>
<linearGradient id="paint1_linear_447_644" x1="45.2577" y1="4.8539" x2="48.812" y2="4.8539" gradientUnits="userSpaceOnUse">
<stop stop-color="#4A56EE"/>
<stop offset="0.942708" stop-color="#7A4CDD"/>
</linearGradient>
<linearGradient id="paint2_linear_447_644" x1="73.5442" y1="6.30901" x2="76.9" y2="6.30901" gradientUnits="userSpaceOnUse">
<stop stop-color="#4A56EE"/>
<stop offset="0.942708" stop-color="#7A4CDD"/>
</linearGradient>
<linearGradient id="paint3_linear_447_644" x1="0.247285" y1="10.2621" x2="19.041" y2="10.2621" gradientUnits="userSpaceOnUse">
<stop stop-color="#4A56EE"/>
<stop offset="0.942708" stop-color="#7A4CDD"/>
</linearGradient>
<linearGradient id="paint4_linear_447_644" x1="20.6171" y1="10.2602" x2="31.0006" y2="10.2602" gradientUnits="userSpaceOnUse">
<stop stop-color="#4A56EE"/>
<stop offset="0.942708" stop-color="#7A4CDD"/>
</linearGradient>
<linearGradient id="paint5_linear_447_644" x1="32.0093" y1="10.5008" x2="43.4007" y2="10.5008" gradientUnits="userSpaceOnUse">
<stop stop-color="#4A56EE"/>
<stop offset="0.942708" stop-color="#7A4CDD"/>
</linearGradient>
<linearGradient id="paint6_linear_447_644" x1="45.2447" y1="10.3249" x2="48.6992" y2="10.3249" gradientUnits="userSpaceOnUse">
<stop stop-color="#4A56EE"/>
<stop offset="0.942708" stop-color="#7A4CDD"/>
</linearGradient>
<linearGradient id="paint7_linear_447_644" x1="50.1319" y1="10.3005" x2="71.4401" y2="10.3005" gradientUnits="userSpaceOnUse">
<stop stop-color="#4A56EE"/>
<stop offset="0.942708" stop-color="#7A4CDD"/>
</linearGradient>
<linearGradient id="paint8_linear_447_644" x1="95.383" y1="12.879" x2="100.149" y2="12.879" gradientUnits="userSpaceOnUse">
<stop stop-color="#4A56EE"/>
<stop offset="0.942708" stop-color="#7A4CDD"/>
</linearGradient>
<linearGradient id="paint9_linear_447_644" x1="109.121" y1="12.8472" x2="113.604" y2="12.8472" gradientUnits="userSpaceOnUse">
<stop stop-color="#4A56EE"/>
<stop offset="0.942708" stop-color="#7A4CDD"/>
</linearGradient>
<linearGradient id="paint10_linear_447_644" x1="121.527" y1="12.8845" x2="134.402" y2="12.8845" gradientUnits="userSpaceOnUse">
<stop stop-color="#4A56EE"/>
<stop offset="0.942708" stop-color="#7A4CDD"/>
</linearGradient>
<clipPath id="clip0_447_644">
<rect width="158.4" height="25.4" fill="white"/>
</clipPath>
</defs>
</svg>
